<mxfile host="65bd71144e">
    <diagram id="oR1_5EeOel477gNE2ldd" name="Page-1">
        <mxGraphModel dx="731" dy="600" grid="1" gridSize="10" guides="1" tooltips="1" connect="1" arrows="1" fold="1" page="1" pageScale="1" pageWidth="1169" pageHeight="1654" math="0" shadow="0">
            <root>
                <mxCell id="0"/>
                <mxCell id="1" parent="0"/>
                <mxCell id="2" value="media" style="swimlane;fontStyle=1;childLayout=stackLayout;horizontal=1;startSize=26;fillColor=#CCCCCC;horizontalStack=0;resizeParent=1;resizeParentMax=0;resizeLast=0;collapsible=1;marginBottom=0;fontSize=20;fontColor=#1A1A1A;" parent="1" vertex="1">
                    <mxGeometry x="25" y="50" width="515" height="364" as="geometry"/>
                </mxCell>
                <mxCell id="3" value="id      INT(11) PRIMARY KEY NOT NULL" style="text;strokeColor=none;fillColor=default;align=left;verticalAlign=top;spacingLeft=4;spacingRight=4;overflow=hidden;rotatable=0;points=[[0,0.5],[1,0.5]];portConstraint=eastwest;fontSize=20;fontColor=#FF6666;" parent="2" vertex="1">
                    <mxGeometry y="26" width="515" height="26" as="geometry"/>
                </mxCell>
                <mxCell id="4" value="picture      VARCHAR(250) " style="text;strokeColor=none;fillColor=default;align=left;verticalAlign=top;spacingLeft=4;spacingRight=4;overflow=hidden;rotatable=0;points=[[0,0.5],[1,0.5]];portConstraint=eastwest;fontSize=20;fontColor=#FF6666;" parent="2" vertex="1">
                    <mxGeometry y="52" width="515" height="26" as="geometry"/>
                </mxCell>
                <mxCell id="5" value="titel           VARCHAR(80) NOT NULL" style="text;strokeColor=none;fillColor=default;align=left;verticalAlign=top;spacingLeft=4;spacingRight=4;overflow=hidden;rotatable=0;points=[[0,0.5],[1,0.5]];portConstraint=eastwest;fontSize=20;fontColor=#FF6666;" parent="2" vertex="1">
                    <mxGeometry y="78" width="515" height="26" as="geometry"/>
                </mxCell>
                <mxCell id="6" value="type         ENUM(&quot;Book&quot;, &quot;DVD&quot;, &quot;CD&quot;) NOT NULL" style="text;strokeColor=none;fillColor=default;align=left;verticalAlign=top;spacingLeft=4;spacingRight=4;overflow=hidden;rotatable=0;points=[[0,0.5],[1,0.5]];portConstraint=eastwest;fontSize=20;fontColor=#FF6666;" parent="2" vertex="1">
                    <mxGeometry y="104" width="515" height="26" as="geometry"/>
                </mxCell>
                <mxCell id="7" value="release_year      INT(4) " style="text;strokeColor=none;fillColor=default;align=left;verticalAlign=top;spacingLeft=4;spacingRight=4;overflow=hidden;rotatable=0;points=[[0,0.5],[1,0.5]];portConstraint=eastwest;fontSize=20;fontColor=#3399FF;" parent="2" vertex="1">
                    <mxGeometry y="130" width="515" height="26" as="geometry"/>
                </mxCell>
                <mxCell id="8" value="description         VARCHAR(255)" style="text;strokeColor=none;fillColor=default;align=left;verticalAlign=top;spacingLeft=4;spacingRight=4;overflow=hidden;rotatable=0;points=[[0,0.5],[1,0.5]];portConstraint=eastwest;fontSize=20;fontColor=#FFFFFF;" parent="2" vertex="1">
                    <mxGeometry y="156" width="515" height="26" as="geometry"/>
                </mxCell>
                <mxCell id="9" value="ISBN          BIGINT(20)" style="text;strokeColor=none;fillColor=default;align=left;verticalAlign=top;spacingLeft=4;spacingRight=4;overflow=hidden;rotatable=0;points=[[0,0.5],[1,0.5]];portConstraint=eastwest;fontSize=20;fontColor=#99FF99;" parent="2" vertex="1">
                    <mxGeometry y="182" width="515" height="26" as="geometry"/>
                </mxCell>
                <mxCell id="10" value="author        VARCHAR(255)" style="text;strokeColor=none;fillColor=default;align=left;verticalAlign=top;spacingLeft=4;spacingRight=4;overflow=hidden;rotatable=0;points=[[0,0.5],[1,0.5]];portConstraint=eastwest;fontSize=20;fontColor=#99FF99;" parent="2" vertex="1">
                    <mxGeometry y="208" width="515" height="26" as="geometry"/>
                </mxCell>
                <mxCell id="11" value="pages        INT(5)" style="text;strokeColor=none;fillColor=default;align=left;verticalAlign=top;spacingLeft=4;spacingRight=4;overflow=hidden;rotatable=0;points=[[0,0.5],[1,0.5]];portConstraint=eastwest;fontSize=20;fontColor=#99FF99;" parent="2" vertex="1">
                    <mxGeometry y="234" width="515" height="26" as="geometry"/>
                </mxCell>
                <mxCell id="12" value="producer    VARCHAR(80)" style="text;strokeColor=none;fillColor=default;align=left;verticalAlign=top;spacingLeft=4;spacingRight=4;overflow=hidden;rotatable=0;points=[[0,0.5],[1,0.5]];portConstraint=eastwest;fontSize=20;fontColor=#3399FF;" parent="2" vertex="1">
                    <mxGeometry y="260" width="515" height="26" as="geometry"/>
                </mxCell>
                <mxCell id="13" value="status         ENUM(&quot;yes&quot;, &quot;no&quot;) NOT NULL" style="text;strokeColor=none;fillColor=default;align=left;verticalAlign=top;spacingLeft=4;spacingRight=4;overflow=hidden;rotatable=0;points=[[0,0.5],[1,0.5]];portConstraint=eastwest;fontSize=20;fontColor=#FFFFFF;" parent="2" vertex="1">
                    <mxGeometry y="286" width="515" height="26" as="geometry"/>
                </mxCell>
                <mxCell id="14" value="genre         VARCHAR(80)" style="text;strokeColor=none;fillColor=default;align=left;verticalAlign=top;spacingLeft=4;spacingRight=4;overflow=hidden;rotatable=0;points=[[0,0.5],[1,0.5]];portConstraint=eastwest;fontSize=20;fontColor=#3399FF;" vertex="1" parent="2">
                    <mxGeometry y="312" width="515" height="26" as="geometry"/>
                </mxCell>
                <mxCell id="15" value="FSK           INT" style="text;strokeColor=none;fillColor=default;align=left;verticalAlign=top;spacingLeft=4;spacingRight=4;overflow=hidden;rotatable=0;points=[[0,0.5],[1,0.5]];portConstraint=eastwest;fontSize=20;fontColor=#FFFFFF;" vertex="1" parent="2">
                    <mxGeometry y="338" width="515" height="26" as="geometry"/>
                </mxCell>
            </root>
        </mxGraphModel>
    </diagram>
</mxfile>